<svg id="Layer_1" data-name="Layer 1" xmlns="http://www.w3.org/2000/svg" viewBox="0 0 97.23 122.88"><defs><style>.cls-1{fill-rule:evenodd;}</style></defs><title>solution</title><path class="cls-1" d="M38.06,25.35ZM17.29,112.22V81.61H31.07c5.87,1,11.68,4.19,17.52,7.88H59.28c4.85.29,7.38,5.2,2.68,8.42-3.75,2.76-8.68,2.6-13.78,2.15-3.5-.17-3.65,4.52,0,4.54,1.27.1,2.65-.2,3.85-.2,6.31,0,11.55-1.21,14.74-6.22l1.58-3.74,16-7.85c8-2.62,13.63,5.7,7.76,11.5a208.22,208.22,0,0,1-35.47,20.85c-8.78,5.34-17.57,5.16-26.33,0l-13-6.72ZM0,78.69H13.15V115.3H0V78.69ZM59.69,2.43A2.66,2.66,0,0,1,60.58.64,2.58,2.58,0,0,1,62.43,0h0l.18,0a2.61,2.61,0,0,1,2.27,2.72h0s0,.09,0,.13l-.38,5.54h0c0,.06,0,.12,0,.17a2.67,2.67,0,0,1-.87,1.64,2.59,2.59,0,0,1-1.85.63h0l-.18,0A2.57,2.57,0,0,1,60,10a2.6,2.6,0,0,1-.64-1.85h0a.53.53,0,0,1,0-.13l.37-5.56Zm-29,8.44a2.61,2.61,0,0,1,0-3.67,2.6,2.6,0,0,1,3.67,0l4,4.06a2.6,2.6,0,0,1,0,3.67,2.63,2.63,0,0,1-1.84.75,2.59,2.59,0,0,1-1.83-.77l-4-4.06Zm-8,28.27a2.6,2.6,0,0,1-2.53-2.63A2.58,2.58,0,0,1,22.74,34l5.68,0a2.58,2.58,0,0,1,1.83.79A2.54,2.54,0,0,1,31,36.64v0h0v.09a2.57,2.57,0,0,1-.77,1.69,2.62,2.62,0,0,1-1.85.74h-.1l-5.62-.06Zm71.87-4.9h.08a2.58,2.58,0,0,1,1.77.65,2.62,2.62,0,0,1,.87,1.79v0s0,.07,0,.08a2.58,2.58,0,0,1-.65,1.77,2.62,2.62,0,0,1-1.79.87l-5.67.35a2.6,2.6,0,0,1-.31-5.19c1.9-.12,3.8-.25,5.7-.35ZM84.32,11.16a2.58,2.58,0,0,1,3.62-.55h0a2.56,2.56,0,0,1,1,1.69,2.66,2.66,0,0,1-.48,1.93l-3.36,4.58a2.61,2.61,0,0,1-3.63.56,2.64,2.64,0,0,1-1-1.7A2.57,2.57,0,0,1,81,15.75l3.37-4.59ZM66.94,77.73a11.65,11.65,0,0,1-4.42,4.06,11.06,11.06,0,0,1-4.93,1.28,10,10,0,0,1-5-1.2,10.19,10.19,0,0,1-2.87-2.34l17.17-1.8Zm2-9.47,0,1.12v.38A16.13,16.13,0,0,1,68.9,72l-.41,1.6L47.68,75.73l-.32-.85-.67-3.34,0-1L69,68.26ZM50.18,39.52a7.47,7.47,0,0,1,2.58,1.68A19,19,0,0,1,54.44,43a69,69,0,0,1,5.83-7.4,49.41,49.41,0,0,1,6.11-5.86l.48-.16,5.23.23L71,30.91a92.54,92.54,0,0,0-8.41,9.93,114.35,114.35,0,0,0-8.37,12.38,32.81,32.81,0,0,0-4.32-7.61,22.65,22.65,0,0,0-5-5l5.24-1.12ZM38.28,25a23.85,23.85,0,0,1,5-5.44,22.52,22.52,0,0,1,6.55-3.66l.2-.06a23.81,23.81,0,0,1,5.47-1.2,25,25,0,0,1,5.93.12,25.73,25.73,0,0,1,10.77,4,24.25,24.25,0,0,1,5.61,5,22.23,22.23,0,0,1,3.62,6.41,24.9,24.9,0,0,1,1.08,4.08,23,23,0,0,1,.35,4.49v0a23.22,23.22,0,0,1-.61,5,25.8,25.8,0,0,1-1.68,4.86C79,52,76.43,55.24,73.9,58.43c-1.24,1.57-2.47,3.13-3.53,4.67a3.18,3.18,0,0,1-3,1.35l-18.7,1.94a3.18,3.18,0,0,1-3.38-2.29,27.52,27.52,0,0,0-1.58-4.16,16.72,16.72,0,0,0-1.9-3.12c-.9-1.12-1.82-2.27-2.74-3.64a27.63,27.63,0,0,1-2.61-4.8l-.06-.18a28.71,28.71,0,0,1-1.6-5.32,24.48,24.48,0,0,1-.39-5.74,24.11,24.11,0,0,1,1.05-5.88A28,28,0,0,1,38,25.41l0-.06.23-.35Z"/></svg>